<svg width="536" height="74" viewBox="0 0 536 74" fill="none" xmlns="http://www.w3.org/2000/svg">
<path d="M0.832275 0.745361L527.146 2.10323C531.564 2.11463 535.136 5.70558 535.125 10.1238L534.982 65.5577C534.97 69.976 531.38 73.5484 526.961 73.537L0.647979 72.1792L0.832275 0.745361Z" fill="black"/>
<g clip-path="url(#clip0_3229_44)">
<path d="M309.34 34.9563L307.706 34.9521C307.165 34.9507 306.725 35.3885 306.724 35.9299C306.722 36.4713 307.16 36.9113 307.701 36.9127L308.355 36.9144C308.896 36.9158 309.334 37.3558 309.333 37.8972C309.331 38.4386 308.891 38.8763 308.35 38.8749L306.716 38.8707M308.035 34.2994L308.033 34.953M308.023 38.8741L308.021 39.5276M311.949 36.9236L311.956 36.9236M304.107 36.9034L304.113 36.9034M301.499 34.4133L301.486 39.38C301.485 40.112 301.484 40.478 301.625 40.758C301.75 41.0043 301.949 41.2047 302.195 41.3307C302.474 41.4739 302.84 41.4748 303.572 41.4767L312.46 41.4996C313.192 41.5015 313.558 41.5024 313.838 41.3607C314.084 41.236 314.285 41.0366 314.411 40.791C314.554 40.5118 314.555 40.1458 314.557 39.4137L314.57 34.447C314.572 33.715 314.572 33.349 314.431 33.069C314.306 32.8228 314.107 32.6223 313.861 32.4964C313.582 32.3532 313.216 32.3522 312.484 32.3503L303.596 32.3274C302.864 32.3255 302.498 32.3246 302.218 32.4663C301.972 32.591 301.771 32.7904 301.645 33.036C301.502 33.3153 301.501 33.6813 301.499 34.4133ZM312.276 36.9245C312.275 37.1049 312.129 37.2509 311.948 37.2504C311.768 37.2499 311.622 37.1033 311.622 36.9228C311.623 36.7423 311.77 36.5964 311.95 36.5969C312.13 36.5973 312.276 36.744 312.276 36.9245ZM304.434 36.9042C304.433 37.0847 304.287 37.2306 304.106 37.2302C303.926 37.2297 303.78 37.083 303.78 36.9026C303.781 36.7221 303.927 36.5762 304.108 36.5766C304.288 36.5771 304.434 36.7238 304.434 36.9042Z" stroke="#FF5555" stroke-width="1.30704" stroke-linecap="round" stroke-linejoin="round"/>
</g>
<circle cx="308.028" cy="36.9136" r="15.3578" transform="rotate(0.14782 308.028 36.9136)" stroke="#FF5555" stroke-width="0.653521"/>
<path d="M336.418 31.6883L336.426 28.7474L341.154 28.7596L341.158 27.1834L336.43 27.1712L336.434 25.3949L341.339 25.4075L341.344 23.8195L334.674 23.8023L334.653 31.6837L336.418 31.6883ZM343.856 25.2141L343.859 23.826L342.095 23.8214L342.091 25.2095L343.856 25.2141ZM343.839 31.7074L343.854 25.814L342.09 25.8094L342.074 31.7029L343.839 31.7074ZM346.527 31.7144L346.535 28.7382C346.537 27.7383 346.938 27.2924 348.056 27.2953C349.138 27.298 349.525 27.699 349.523 28.6401L349.515 31.7221L351.279 31.7266L351.289 28.0565C351.292 26.7507 350.53 25.7136 348.919 25.7094C347.378 25.7054 346.67 26.6447 346.514 27.6324L346.408 27.6321L346.413 25.8206L344.778 25.8164L344.763 31.7098L346.527 31.7144ZM353.983 31.8512C355.289 31.8546 356.114 31.3038 356.387 30.387L356.481 30.3872L356.477 31.74L358.124 31.7443L358.133 28.2859C358.137 26.7449 357.211 25.7308 355.246 25.7257C353.305 25.7207 352.079 26.7292 352.075 28.1879L352.075 28.2232L353.852 28.2278L353.852 28.1807C353.853 27.5102 354.219 27.2759 355.113 27.2782C356.054 27.2806 356.394 27.4932 356.392 28.2578L356.392 28.4813L353.862 28.7336C352.603 28.8598 351.955 29.3992 351.952 30.2697C351.95 31.2578 352.713 31.848 353.983 31.8512ZM353.729 30.1566C353.73 29.8743 353.918 29.7572 354.342 29.723L356.389 29.493C356.34 30.3281 355.692 30.6087 354.492 30.6056C353.975 30.6043 353.728 30.4743 353.729 30.1566ZM360.783 31.7511L360.791 28.775C360.793 27.7751 361.195 27.3292 362.312 27.332C363.394 27.3348 363.781 27.7358 363.779 28.6769L363.771 31.7588L365.536 31.7634L365.545 28.0932C365.548 26.7875 364.786 25.7504 363.175 25.7462C361.634 25.7422 360.926 26.6815 360.77 27.6692L360.664 27.6689L360.669 25.8574L359.034 25.8532L359.019 31.7466L360.783 31.7511ZM369.569 31.8914C371.463 31.8963 372.759 30.8763 372.763 29.3588L372.764 29.1941L371.011 29.1896L371.011 29.2837C371.009 30.0365 370.455 30.3057 369.538 30.3033C368.491 30.3006 368.009 29.9112 368.012 28.8289C368.015 27.7349 368.498 27.348 369.545 27.3507C370.463 27.3531 371.015 27.625 371.013 28.3779L371.013 28.472L372.765 28.4765L372.766 28.3118C372.77 26.7826 371.478 25.7676 369.585 25.7627C367.561 25.7575 366.264 26.9423 366.259 28.8244C366.255 30.683 367.545 31.8862 369.569 31.8914ZM376.645 31.9097C378.515 31.9145 379.764 31.0237 379.768 29.7415L379.768 29.6121L378.004 29.6076L378.003 29.7252C378.002 30.231 377.637 30.5006 376.59 30.4979C375.449 30.495 375.026 30.1057 374.981 29.1998L379.781 29.2122C379.805 29.0123 379.829 28.8594 379.829 28.6477C379.834 26.8008 378.555 25.7859 376.625 25.7809C374.684 25.7759 373.352 26.9606 373.347 28.8427C373.342 30.9366 374.68 31.9046 376.645 31.9097ZM376.587 27.1571C377.622 27.1598 378.091 27.5021 378.136 28.2786L375.007 28.2706C375.092 27.5062 375.54 27.1544 376.587 27.1571Z" fill="white"/>
<path d="M335.994 49.9858L336.006 45.1511L335.962 44.0099L336.056 44.0102L336.536 45.1525L338.701 49.5223L340.23 49.5262L342.418 45.1676L342.903 44.0278L342.997 44.0281L342.947 45.169L342.934 50.0037L344.205 50.007L344.225 42.1256L342.496 42.1211L340.237 46.6795L339.539 48.3128L339.445 48.3126L338.732 46.6756L336.473 42.1056L334.744 42.1011L334.724 49.9826L335.994 49.9858ZM348.372 50.1354C350.324 50.1404 351.633 48.9087 351.638 47.1089C351.643 45.2855 350.34 44.0588 348.387 44.0537C346.446 44.0487 345.138 45.2688 345.133 47.0921C345.128 48.8919 346.431 50.1304 348.372 50.1354ZM348.375 49.0061C346.963 49.0025 346.377 48.3304 346.38 47.0953C346.383 45.8484 346.973 45.1676 348.384 45.1713C349.808 45.1749 350.394 45.8587 350.391 47.1056C350.388 48.3408 349.798 49.0098 348.375 49.0061ZM355.316 50.1533C356.963 50.1576 358.047 49.5134 358.05 48.4194C358.053 47.4548 357.419 46.9826 356.031 46.8026L354.679 46.6109C353.797 46.491 353.562 46.3257 353.563 45.8669C353.564 45.314 353.941 45.0797 355.012 45.0825C356.306 45.0858 356.658 45.4514 356.656 46.1454L356.656 46.216L357.915 46.2193L357.915 46.184C357.918 44.7959 356.838 44.0756 355.05 44.0709C353.25 44.0663 352.319 44.7932 352.316 45.8166C352.314 46.793 352.983 47.2653 354.088 47.4093L355.688 47.6251C356.523 47.7449 356.804 47.8986 356.803 48.3809C356.802 48.8985 356.46 49.1328 355.319 49.1299C354.096 49.1267 353.638 48.8785 353.64 48.1139L353.64 48.0198L352.369 48.0165L352.369 48.0518C352.366 49.4046 353.434 50.1485 355.316 50.1533ZM362.797 50.055L362.8 48.9139L361.742 48.9112C361.012 48.9093 360.683 48.7203 360.685 48.0027L360.692 45.2618L362.81 45.2673L362.812 44.2086L360.695 44.2031L360.698 42.9209L359.44 42.9177L359.436 44.1999L358.448 44.1973L358.445 45.256L359.434 45.2586L359.426 48.07C359.423 49.4934 360.198 50.0483 361.456 50.0515L362.797 50.055ZM366.873 50.0655L366.879 47.6893L369.467 47.696C371.22 47.7005 372.422 46.6919 372.427 44.951C372.431 43.1982 371.234 42.1953 369.481 42.1907L365.623 42.1808L365.602 50.0622L366.873 50.0655ZM369.36 43.3315C370.549 43.3345 371.159 43.7831 371.156 44.9477C371.153 46.1123 370.54 46.5577 369.352 46.5546L366.882 46.5483L366.89 43.3251L369.36 43.3315ZM376.16 50.2071C378.113 50.2121 379.422 48.9803 379.427 47.1806C379.431 45.3572 378.129 44.1305 376.176 44.1254C374.235 44.1204 372.926 45.3405 372.921 47.1638C372.917 48.9636 374.219 50.2021 376.16 50.2071ZM376.163 49.0778C374.752 49.0742 374.165 48.4021 374.168 47.167C374.172 45.9201 374.761 45.2393 376.173 45.243C377.596 45.2466 378.183 45.9304 378.18 47.1773C378.176 48.4125 377.587 49.0815 376.163 49.0778ZM381.606 52.1033L381.616 48.4567L381.663 48.4568C381.895 49.5278 382.74 50.2241 384.058 50.2275C385.881 50.2322 386.884 49.0114 386.889 47.1998C386.894 45.3883 385.873 44.1505 384.062 44.1458C382.686 44.1422 381.86 44.7989 381.622 45.8805L381.516 45.8802L381.521 44.2569L380.356 44.2539L380.336 52.1L381.606 52.1033ZM381.619 47.2803L381.619 47.1744C381.622 45.9158 382.353 45.306 383.659 45.3093C384.882 45.3125 385.622 45.7849 385.619 47.1965C385.615 48.5964 384.884 49.0768 383.626 49.0735C382.379 49.0703 381.616 48.4802 381.619 47.2803ZM390.197 50.2433C391.702 50.2472 392.481 49.3081 392.672 48.3205L392.743 48.3207L392.738 50.1322L393.902 50.1352L393.918 44.2888L392.659 44.2856L392.651 47.1794C392.648 48.4498 392.047 49.107 390.753 49.1037C389.517 49.1005 389.013 48.5463 389.016 47.4523L389.024 44.2762L387.765 44.273L387.756 47.7902C387.753 49.143 388.55 50.2391 390.197 50.2433ZM396.327 50.1415L396.347 42.26L395.077 42.2568L395.057 50.1382L396.327 50.1415ZM399.221 50.2666C400.55 50.27 401.481 49.6842 401.789 48.6969L401.871 48.6971L401.868 50.1558L403.032 50.1588L403.041 46.6063C403.045 45.2064 402.212 44.1926 400.354 44.1878C398.495 44.183 397.387 45.1801 397.384 46.5093L397.383 46.5564L398.642 46.5596L398.642 46.5126C398.644 45.6538 399.175 45.3023 400.257 45.3051C401.374 45.308 401.797 45.6502 401.795 46.6148L401.794 46.9559L399.134 47.2314C397.981 47.3578 397.251 47.8265 397.248 48.7323C397.246 49.6968 398.009 50.2635 399.221 50.2666ZM398.519 48.6532C398.52 48.1944 398.838 48.0423 399.497 47.9617L401.792 47.7088C401.789 48.8616 400.893 49.3534 399.564 49.3499C398.835 49.348 398.518 49.1237 398.519 48.6532ZM405.437 50.165L405.445 46.883C405.448 45.8361 405.861 45.2843 406.861 45.2868C407.731 45.2891 408.083 45.6782 408.081 46.5134L408.08 47.031L409.339 47.0342L409.341 46.2696C409.343 45.1638 408.769 44.2095 407.44 44.2061C406.24 44.203 405.603 44.9542 405.424 45.8948L405.342 45.8946L405.346 44.3183L404.181 44.3153L404.166 50.1617L405.437 50.165ZM412.962 50.1844L413.873 48.1399L418.038 48.1507L418.938 50.1998L420.373 50.2035L416.876 42.313L415.088 42.3084L411.551 50.1808L412.962 50.1844ZM415.459 44.6032L415.92 43.4869L416.014 43.4871L416.47 44.6058L417.535 47.0083L414.382 47.0002L415.459 44.6032ZM423.914 50.3303C425.666 50.3348 426.951 49.35 426.955 47.8913L426.955 47.7619L425.697 47.7587L425.696 47.841C425.694 48.7468 425.034 49.1921 423.893 49.1892C422.576 49.1858 421.989 48.549 421.992 47.2904C421.996 46.0082 422.585 45.3862 423.903 45.3896C425.044 45.3926 425.701 45.8413 425.699 46.7471L425.699 46.8176L426.958 46.8209L426.958 46.7032C426.962 45.2446 425.682 44.2532 423.929 44.2486C422 44.2437 420.738 45.4638 420.734 47.2871C420.729 49.0869 421.984 50.3253 423.914 50.3303ZM430.841 50.3482C432.593 50.3527 433.878 49.3679 433.882 47.9092L433.882 47.7798L432.624 47.7766L432.623 47.8589C432.621 48.7647 431.961 49.21 430.82 49.2071C429.503 49.2037 428.916 48.5669 428.919 47.3082C428.923 46.026 429.512 45.4041 430.83 45.4075C431.971 45.4104 432.628 45.8591 432.626 46.7649L432.626 46.8355L433.885 46.8388L433.885 46.7211C433.889 45.2625 432.609 44.271 430.856 44.2665C428.927 44.2615 427.665 45.4817 427.661 47.305C427.656 49.1048 428.911 50.3432 430.841 50.3482ZM437.803 50.3661C439.756 50.3712 441.065 49.1394 441.069 47.3396C441.074 45.5163 439.771 44.2895 437.819 44.2845C435.878 44.2795 434.569 45.4995 434.564 47.3228C434.559 49.1226 435.862 50.3611 437.803 50.3661ZM437.806 49.2368C436.394 49.2332 435.808 48.5612 435.811 47.326C435.814 46.0791 436.404 45.3984 437.816 45.402C439.239 45.4057 439.826 46.0895 439.822 47.3364C439.819 48.5715 439.229 49.2405 437.806 49.2368ZM444.418 50.3832C445.924 50.3871 446.703 49.448 446.894 48.4604L446.964 48.4606L446.96 50.2721L448.124 50.2751L448.139 44.4287L446.881 44.4255L446.873 47.3193C446.87 48.5897 446.268 49.2469 444.974 49.2436C443.739 49.2404 443.235 48.6862 443.237 47.5922L443.246 44.4161L441.987 44.4129L441.978 47.9301C441.974 49.2829 442.772 50.3789 444.418 50.3832ZM450.549 50.2814L450.556 47.3876C450.56 46.1172 451.138 45.4599 452.42 45.4632C453.631 45.4663 454.124 46.0205 454.121 47.1145L454.113 50.2906L455.384 50.2938L455.393 46.7766C455.396 45.4238 454.599 44.3278 452.976 44.3236C451.493 44.3198 450.715 45.2588 450.536 46.2465L450.453 46.2463L450.458 44.4347L449.293 44.4317L449.278 50.2781L450.549 50.2814ZM460.35 50.3067L460.353 49.1656L459.295 49.1629C458.565 49.161 458.236 48.9719 458.238 48.2544L458.245 45.5135L460.363 45.519L460.365 44.4603L458.248 44.4548L458.251 43.1726L456.993 43.1694L456.989 44.4516L456.001 44.449L455.999 45.5077L456.987 45.5103L456.979 48.3217C456.976 49.7451 457.751 50.3 459.009 50.3032L460.35 50.3067ZM462.432 43.7833L462.436 42.4305L461.165 42.4273L461.162 43.7801L462.432 43.7833ZM462.416 50.312L462.431 44.4656L461.16 44.4623L461.145 50.3087L462.416 50.312ZM464.862 50.3183L464.87 47.4245C464.873 46.1541 465.451 45.4968 466.733 45.5001C467.945 45.5033 468.438 46.0574 468.435 47.1514L468.427 50.3275L469.697 50.3308L469.706 46.8135C469.71 45.4608 468.913 44.3647 467.289 44.3605C465.807 44.3567 465.028 45.2957 464.849 46.2834L464.767 46.2832L464.772 44.4716L463.607 44.4686L463.592 50.315L464.862 50.3183ZM473.371 49.8109C474.701 49.8143 475.49 49.1811 475.704 48.2994L475.787 48.2997L475.783 49.7348C475.78 51.0405 475.296 51.4039 473.967 51.4005C472.72 51.3973 472.227 51.0784 472.229 50.2314L470.971 50.2282C470.967 51.6398 472.165 52.4546 473.894 52.459C475.811 52.464 477.037 51.6319 477.042 49.6674L477.055 44.5033L475.891 44.5003L475.887 45.959L475.816 45.9588C475.607 44.9348 474.691 44.3796 473.468 44.3764C471.691 44.3719 470.606 45.4631 470.602 47.0864C470.598 48.7097 471.63 49.8064 473.371 49.8109ZM471.884 47.0897C471.888 45.8899 472.606 45.48 473.83 45.4831C475.065 45.4863 475.793 45.994 475.79 46.9822L475.79 47.1468C475.787 48.182 475.08 48.7213 473.786 48.718C472.586 48.7149 471.881 48.2896 471.884 47.0897ZM481.049 50.3601L481.961 48.3156L486.125 48.3263L487.025 50.3755L488.46 50.3792L484.963 42.4887L483.175 42.4841L479.638 50.3564L481.049 50.3601ZM483.546 44.7789L484.008 43.6625L484.102 43.6628L484.558 44.7815L485.622 47.184L482.469 47.1758L483.546 44.7789ZM490.314 52.3837L490.323 48.7371L490.37 48.7372C490.603 49.8083 491.448 50.5045 492.765 50.5079C494.589 50.5126 495.592 49.2918 495.596 47.4803C495.601 45.6687 494.581 44.4309 492.769 44.4262C491.393 44.4227 490.568 45.0793 490.33 46.1609L490.224 46.1607L490.228 44.5373L489.064 44.5343L489.043 52.3805L490.314 52.3837ZM490.326 47.5608L490.327 47.4549C490.33 46.1962 491.061 45.5864 492.366 45.5898C493.59 45.5929 494.33 46.0654 494.326 47.477C494.322 48.8768 493.592 49.3572 492.333 49.354C491.086 49.3508 490.323 48.7606 490.326 47.5608ZM497.735 52.4029L497.744 48.7563L497.791 48.7564C498.024 49.8275 498.869 50.5237 500.186 50.5271C502.01 50.5318 503.013 49.311 503.018 47.4994C503.022 45.6879 502.002 44.4501 500.19 44.4454C498.814 44.4418 497.989 45.0985 497.751 46.1801L497.645 46.1798L497.649 44.5565L496.485 44.5535L496.464 52.3996L497.735 52.4029ZM497.747 47.5799L497.748 47.4741C497.751 46.2154 498.482 45.6056 499.787 45.6089C501.011 45.6121 501.751 46.0845 501.747 47.4961C501.743 48.896 501.013 49.3764 499.754 49.3731C498.507 49.3699 497.744 48.7798 497.747 47.5799Z" fill="white"/>
<path d="M41.3877 38.186C39.2221 38.1804 37.4711 36.4204 37.4767 34.2548L37.486 30.6241C37.4867 30.3537 37.4871 30.2184 37.5268 30.1102C37.5933 29.9289 37.7367 29.7863 37.9184 29.7207C38.0268 29.6815 38.162 29.6819 38.4324 29.6826L44.3867 29.6979C44.6572 29.6986 44.7924 29.699 44.9006 29.7387C45.0819 29.8052 45.2246 29.9486 45.2902 30.1303C45.3293 30.2387 45.329 30.3739 45.3283 30.6443L45.3189 34.275C45.3133 36.4406 43.5532 38.1916 41.3877 38.186ZM41.3877 38.186L41.3826 40.1466M45.3273 31.0074L46.9611 31.0116C47.2656 31.0124 47.4179 31.0128 47.5378 31.0629C47.6978 31.1296 47.8247 31.2572 47.8906 31.4175C47.9401 31.5377 47.9397 31.6899 47.9389 31.9944L47.938 32.3212C47.9365 32.929 47.9357 33.2328 47.8682 33.482C47.6852 34.1581 47.1554 34.6852 46.4783 34.8647C46.2288 34.9309 45.925 34.9301 45.3172 34.9285M37.4851 30.9872L35.8513 30.983C35.5468 30.9822 35.3945 30.9818 35.2743 31.0312C35.114 31.0971 34.9865 31.224 34.9197 31.384C34.8697 31.504 34.8693 31.6562 34.8685 31.9607L34.8676 32.2875C34.8661 32.8952 34.8653 33.1991 34.9315 33.4486C35.111 34.1256 35.6381 34.6555 36.3142 34.8385C36.5633 34.9059 36.8672 34.9067 37.475 34.9083M38.3987 42.753L44.353 42.7683C44.5134 42.7687 44.6438 42.639 44.6442 42.4786C44.6475 41.1953 43.6099 40.1523 42.3266 40.149L40.4386 40.1441C39.1553 40.1408 38.1123 41.1785 38.109 42.4618C38.1086 42.6222 38.2383 42.7526 38.3987 42.753Z" stroke="#FF5555" stroke-width="1.30704" stroke-linecap="round" stroke-linejoin="round"/>
<circle cx="41.3928" cy="36.2259" r="15.3578" transform="rotate(0.14782 41.3928 36.2259)" stroke="#FF5555" stroke-width="0.653521"/>
<path d="M69.4646 30.9994L70.2219 29.2604L74.1626 29.2705L74.8992 31.0134L76.9225 31.0187L73.4727 23.1283L70.9553 23.1218L67.4883 30.9943L69.4646 30.9994ZM71.6538 25.9585L72.1393 24.7364L72.2687 24.7367L72.7478 25.9614L73.4845 27.6807L70.9083 27.6741L71.6538 25.9585ZM80.4747 31.1454C82.3686 31.1503 83.6652 30.1303 83.6691 28.6128L83.6695 28.4481L81.9168 28.4436L81.9165 28.5377C81.9146 29.2905 81.361 29.5597 80.4435 29.5573C79.3965 29.5546 78.9152 29.1652 78.918 28.0829C78.9209 26.989 79.4042 26.602 80.4511 26.6047C81.3686 26.6071 81.9208 26.8791 81.9189 27.6319L81.9186 27.726L83.6714 27.7305L83.6718 27.5659C83.6757 26.0366 82.3844 25.0216 80.4905 25.0167C78.4672 25.0115 77.1702 26.1963 77.1653 28.0784C77.1605 29.937 78.4514 31.1402 80.4747 31.1454ZM86.1865 31.0426L86.1942 28.09C86.1967 27.1018 86.5626 26.6205 87.7507 26.6235C88.8565 26.6264 89.279 26.9804 89.2765 27.9685L89.2685 31.0505L91.033 31.0551L91.0424 27.4437C91.0459 26.0792 90.2722 25.042 88.6841 25.0379C87.1784 25.034 86.482 25.9498 86.2912 26.9491L86.1971 26.9489L86.2069 23.1611L84.4424 23.1566L84.422 31.038L86.1865 31.0426ZM93.7047 24.5685L93.7083 23.1805L91.9438 23.1759L91.9402 24.564L93.7047 24.5685ZM93.688 31.0619L93.7032 25.1685L91.9387 25.1639L91.9235 31.0574L93.688 31.0619ZM97.7403 31.19C99.6107 31.1948 100.86 30.304 100.863 29.0218L100.864 28.8924L99.0991 28.8879L99.0987 29.0055C99.0974 29.5113 98.7321 29.7809 97.6851 29.7782C96.5441 29.7753 96.1216 29.386 96.0769 28.4801L100.876 28.4925C100.9 28.2926 100.924 28.1397 100.925 27.928C100.93 26.0811 99.65 25.0662 97.7208 25.0612C95.7799 25.0562 94.4476 26.2409 94.4427 28.123C94.4373 30.2169 95.7758 31.1849 97.7403 31.19ZM97.682 26.4374C98.7172 26.4401 99.1868 26.7824 99.2319 27.5589L96.1028 27.5509C96.1871 26.7865 96.6351 26.4347 97.682 26.4374ZM106.053 31.0938L108.762 25.2073L106.833 25.2023L105.045 29.3737L104.928 29.3734L103.174 25.1929L101.21 25.1878L103.876 31.0882L106.053 31.0938ZM112.341 31.2277C114.211 31.2325 115.461 30.3417 115.464 29.0595L115.464 28.9301L113.7 28.9255L113.7 29.0432C113.698 29.549 113.333 29.8186 112.286 29.8159C111.145 29.813 110.722 29.4237 110.678 28.5178L115.477 28.5302C115.501 28.3302 115.525 28.1774 115.526 27.9656C115.53 26.1188 114.251 25.1038 112.322 25.0989C110.381 25.0939 109.048 26.2785 109.044 28.1607C109.038 30.2545 110.377 31.2226 112.341 31.2277ZM112.283 26.4751C113.318 26.4778 113.788 26.8201 113.833 27.5966L110.704 27.5885C110.788 26.8241 111.236 26.4724 112.283 26.4751ZM118.03 31.1247L118.038 28.1486C118.041 27.1252 118.348 26.7025 119.418 26.7052C120.43 26.7078 120.77 27.0734 120.767 28.0498L120.759 31.1317L122.524 31.1363L122.532 28.1602C122.534 27.1368 122.841 26.7141 123.912 26.7168C124.923 26.7194 125.263 27.085 125.261 28.0613L125.253 31.1433L127.017 31.1479L127.027 27.4777C127.03 26.1367 126.292 25.1349 124.774 25.131C123.257 25.1271 122.655 26.0548 122.511 27.0544L122.405 27.0541C122.278 25.9598 121.587 25.1228 120.222 25.1193C118.74 25.1154 118.149 26.0315 118.006 27.0192L117.911 27.019L117.916 25.2309L116.281 25.2267L116.266 31.1202L118.03 31.1247ZM131.043 31.2759C132.913 31.2807 134.163 30.3899 134.166 29.1077L134.166 28.9783L132.402 28.9738L132.401 29.0914C132.4 29.5972 132.035 29.8669 130.988 29.8642C129.847 29.8612 129.424 29.4719 129.38 28.566L134.179 28.5784C134.203 28.3785 134.227 28.2256 134.228 28.0139C134.232 26.1671 132.953 25.1521 131.024 25.1471C129.083 25.1421 127.75 26.3268 127.745 28.2089C127.74 30.3028 129.079 31.2708 131.043 31.2759ZM130.985 26.5233C132.02 26.526 132.49 26.8684 132.535 27.6449L129.406 27.6368C129.49 26.8724 129.938 26.5206 130.985 26.5233ZM136.732 31.173L136.74 28.1968C136.742 27.1969 137.144 26.751 138.261 26.7539C139.343 26.7566 139.73 27.1576 139.728 28.0987L139.72 31.1807L141.485 31.1852L141.494 27.5151C141.497 26.2093 140.735 25.1722 139.124 25.168C137.583 25.164 136.875 26.1033 136.719 27.091L136.613 27.0907L136.618 25.2792L134.983 25.275L134.968 31.1684L136.732 31.173ZM146.53 31.1982L146.534 29.6102L145.475 29.6075C144.852 29.6058 144.628 29.4523 144.63 28.8642L144.635 26.7585L146.541 26.7635L146.545 25.3048L144.639 25.2999L144.642 24.1588L142.878 24.1543L142.875 25.2953L141.945 25.2929L141.942 26.7516L142.871 26.754L142.865 29.0596C142.861 30.5418 143.695 31.1909 145.071 31.1945L146.53 31.1982ZM150.166 31.3252C151.99 31.33 153.086 30.6034 153.088 29.4977C153.091 28.5213 152.504 27.9905 150.928 27.81L149.67 27.6538C148.894 27.5577 148.729 27.4278 148.73 27.122C148.731 26.7456 148.955 26.5932 149.837 26.5955C150.92 26.5983 151.154 26.8459 151.153 27.3282L151.153 27.3988L152.917 27.4034L152.917 27.3681C152.921 25.9329 151.829 25.2008 149.9 25.1958C147.877 25.1906 146.992 26.0118 146.989 27.0469C146.987 28.0351 147.644 28.5661 148.82 28.6985L150.478 28.9028C151.172 28.9987 151.348 29.0932 151.348 29.4226C151.347 29.7755 151.123 29.9279 150.182 29.9254C149.182 29.9229 148.853 29.7809 148.854 29.2515L148.854 29.1456L147.09 29.1411L147.09 29.1764C147.086 30.5409 148.178 31.3201 150.166 31.3252Z" fill="white"/>
<path d="M72.6052 49.3065C74.2285 49.3107 75.1364 48.4896 75.1399 47.1368C75.1426 46.1016 74.4857 45.3706 73.1451 45.2142L73.1453 45.1318C74.3455 44.9938 74.8649 44.3011 74.8673 43.3718C74.8705 42.1249 73.9666 41.4285 72.4608 41.4246L68.0496 41.4132L68.0293 49.2947L72.6052 49.3065ZM69.3053 42.5575L72.3167 42.5653C73.199 42.5676 73.6098 42.9098 73.6079 43.6508C73.606 44.3919 73.1581 44.7319 72.2759 44.7296L69.2997 44.722L69.3053 42.5575ZM69.297 45.7689L72.4731 45.7771C73.4024 45.7795 73.8721 46.1336 73.8699 46.957C73.8677 47.8158 73.4081 48.1675 72.467 48.1651L69.2909 48.1569L69.297 45.7689ZM78.8976 49.4403C80.6386 49.4448 81.8642 48.5893 81.8674 47.3423L81.8677 47.2365L80.5973 47.2332L80.597 47.3273C80.5952 48.0213 80.0884 48.42 78.865 48.4168C77.5122 48.4133 76.9609 47.812 76.9167 46.6826L81.8809 46.6954C81.9166 46.519 81.9288 46.3544 81.9294 46.1426C81.9339 44.3664 80.7014 43.3633 78.8898 43.3586C76.9841 43.3537 75.7341 44.5739 75.7294 46.3972C75.7243 48.3499 76.9802 49.4354 78.8976 49.4403ZM78.8637 44.3584C80.1106 44.3617 80.7327 44.8809 80.7299 45.9631L80.7299 45.9866L76.9303 45.9768C77.0036 44.9301 77.5697 44.3551 78.8637 44.3584ZM85.6368 49.4577C87.2836 49.462 88.3675 48.8178 88.3703 47.7238C88.3728 46.7592 87.7388 46.287 86.3512 46.107L84.9989 45.9153C84.117 45.7954 83.8821 45.6301 83.8833 45.1713C83.8847 44.6184 84.2618 44.3841 85.3322 44.3869C86.6262 44.3902 86.9782 44.7558 86.9764 45.4498L86.9762 45.5204L88.2349 45.5237L88.2349 45.4884C88.2385 44.1003 87.1582 43.38 85.3701 43.3753C83.5703 43.3707 82.6391 44.0976 82.6365 45.121C82.634 46.0974 83.3033 46.5697 84.4087 46.7137L86.0079 46.9295C86.8428 47.0493 87.1248 47.203 87.1235 47.6853C87.1222 48.2029 86.7804 48.4372 85.6394 48.4343C84.416 48.4311 83.9579 48.1829 83.9598 47.4183L83.9601 47.3242L82.6896 47.3209L82.6896 47.3562C82.6861 48.709 83.7546 49.4529 85.6368 49.4577ZM93.1176 49.3594L93.1206 48.2183L92.0619 48.2156C91.3325 48.2137 91.0037 48.0247 91.0055 47.3071L91.0126 44.5662L93.13 44.5717L93.1327 43.513L91.0153 43.5075L91.0186 42.2253L89.7599 42.2221L89.7566 43.5043L88.7685 43.5017L88.7658 44.5604L89.7539 44.563L89.7466 47.3744C89.743 48.7978 90.5179 49.3527 91.7766 49.3559L93.1176 49.3594ZM97.1931 49.3699L97.2012 46.2056L102.024 46.218L102.027 45.0887L97.2041 45.0763L97.2105 42.6295L102.21 42.6424L102.213 41.5014L95.943 41.4852L95.9226 49.3666L97.1931 49.3699ZM104.424 42.8599L104.428 41.5071L103.157 41.5038L103.154 42.8566L104.424 42.8599ZM104.407 49.3885L104.422 43.5421L103.152 43.5388L103.137 49.3852L104.407 49.3885ZM106.854 49.3948L106.862 46.501C106.865 45.2306 107.443 44.5733 108.725 44.5766C109.937 44.5798 110.429 45.1339 110.427 46.2279L110.418 49.404L111.689 49.4073L111.698 45.8901C111.701 44.5373 110.904 43.4412 109.281 43.437C107.799 43.4332 107.02 44.3723 106.841 45.3599L106.759 45.3597L106.763 43.5482L105.599 43.5452L105.584 49.3915L106.854 49.3948ZM114.538 49.5323C115.867 49.5357 116.798 48.9499 117.107 47.9626L117.189 47.9628L117.185 49.4215L118.35 49.4245L118.359 45.872C118.363 44.4721 117.53 43.4583 115.671 43.4535C113.813 43.4487 112.704 44.4458 112.701 45.775L112.701 45.8221L113.959 45.8253L113.96 45.7783C113.962 44.9195 114.492 44.568 115.574 44.5708C116.692 44.5737 117.114 44.9159 117.112 45.8805L117.111 46.2216L114.452 46.4971C113.299 46.6235 112.568 47.0922 112.566 47.9979C112.563 48.9625 113.326 49.5292 114.538 49.5323ZM113.836 47.9189C113.838 47.4601 114.156 47.308 114.815 47.2274L117.109 46.9745C117.106 48.1273 116.211 48.619 114.882 48.6156C114.152 48.6137 113.835 48.3894 113.836 47.9189ZM120.754 49.4307L120.762 46.5369C120.765 45.2665 121.343 44.6092 122.625 44.6125C123.837 44.6156 124.33 45.1698 124.327 46.2638L124.319 49.4399L125.589 49.4432L125.598 45.9259C125.602 44.5731 124.804 43.4771 123.181 43.4729C121.699 43.4691 120.92 44.4081 120.741 45.3958L120.659 45.3956L120.663 43.584L119.499 43.581L119.484 49.4274L120.754 49.4307ZM129.673 49.5713C131.426 49.5759 132.711 48.591 132.715 47.1324L132.715 47.003L131.456 46.9997L131.456 47.0821C131.454 47.9879 130.794 48.4332 129.653 48.4302C128.335 48.4268 127.749 47.7901 127.752 46.5314C127.755 45.2492 128.345 44.6273 129.663 44.6307C130.804 44.6336 131.461 45.0823 131.459 45.9881L131.459 46.0587L132.717 46.0619L132.718 45.9443C132.721 44.4856 131.442 43.4942 129.689 43.4897C127.76 43.4847 126.498 44.7048 126.493 46.5282C126.489 48.328 127.744 49.5664 129.673 49.5713ZM136.589 49.5892C138.33 49.5937 139.555 48.7381 139.558 47.4912L139.559 47.3853L138.288 47.382L138.288 47.4761C138.286 48.1702 137.779 48.5688 136.556 48.5657C135.203 48.5622 134.652 47.9608 134.608 46.8314L139.572 46.8442C139.608 46.6679 139.62 46.5032 139.62 46.2915C139.625 44.5152 138.392 43.5121 136.581 43.5075C134.675 43.5025 133.425 44.7227 133.42 46.546C133.415 48.4987 134.671 49.5842 136.589 49.5892ZM136.555 44.5073C137.802 44.5105 138.424 45.0297 138.421 46.1119L138.421 46.1355L134.621 46.1256C134.695 45.0789 135.261 44.5039 136.555 44.5073ZM143.397 49.4891L144.308 47.4446L148.473 47.4554L149.373 49.5045L150.808 49.5082L147.311 41.6177L145.523 41.6131L141.986 49.4855L143.397 49.4891ZM145.894 43.9079L146.356 42.7916L146.45 42.7918L146.906 43.9105L147.97 46.313L144.817 46.3049L145.894 43.9079ZM152.662 51.5128L152.671 47.8661L152.718 47.8663C152.951 48.9373 153.796 49.6336 155.113 49.637C156.937 49.6417 157.94 48.4209 157.944 46.6093C157.949 44.7977 156.929 43.56 155.117 43.5553C153.741 43.5517 152.916 44.2084 152.678 45.29L152.572 45.2897L152.576 43.6664L151.412 43.6634L151.391 51.5095L152.662 51.5128ZM152.674 46.6898L152.674 46.5839C152.678 45.3253 153.409 44.7155 154.714 44.7188C155.938 44.722 156.678 45.1944 156.674 46.606C156.67 48.0059 155.94 48.4863 154.681 48.483C153.434 48.4798 152.671 47.8897 152.674 46.6898ZM160.083 51.5319L160.092 47.8853L160.139 47.8854C160.372 48.9565 161.217 49.6527 162.534 49.6561C164.358 49.6608 165.361 48.44 165.365 46.6284C165.37 44.8169 164.35 43.5791 162.538 43.5744C161.162 43.5709 160.337 44.2275 160.099 45.3091L159.993 45.3088L159.997 43.6855L158.833 43.6825L158.812 51.5287L160.083 51.5319ZM160.095 46.709L160.095 46.6031C160.099 45.3444 160.83 44.7346 162.135 44.738C163.359 44.7411 164.099 45.2136 164.095 46.6252C164.091 48.025 163.361 48.5054 162.102 48.5022C160.855 48.499 160.092 47.9088 160.095 46.709ZM172.119 49.6808C174.612 49.6873 176.24 48.0916 176.246 45.6331C176.253 43.1746 174.633 41.5706 172.14 41.5641C169.669 41.5578 168.03 43.1534 168.024 45.6119C168.017 48.0704 169.648 49.6745 172.119 49.6808ZM172.122 48.4574C170.251 48.4526 169.36 47.5798 169.365 45.6153C169.37 43.6509 170.266 42.7709 172.136 42.7758C174.007 42.7806 174.91 43.6652 174.905 45.6296C174.9 47.5941 173.992 48.4623 172.122 48.4574ZM178.445 49.5795L178.453 46.6857C178.456 45.4153 179.034 44.758 180.316 44.7613C181.528 44.7645 182.02 45.3186 182.018 46.4126L182.009 49.5887L183.28 49.592L183.289 46.0748C183.292 44.722 182.495 43.6259 180.872 43.6217C179.39 43.6179 178.611 44.557 178.432 45.5446L178.35 45.5444L178.354 43.7329L177.19 43.7299L177.175 49.5762L178.445 49.5795ZM187.693 49.6034L187.699 47.2272L190.287 47.2339C192.04 47.2384 193.242 46.2298 193.246 44.4889C193.251 42.7361 192.054 41.7331 190.301 41.7286L186.443 41.7187L186.422 49.6001L187.693 49.6034ZM190.18 42.8694C191.368 42.8724 191.979 43.321 191.976 44.4856C191.973 45.6502 191.36 46.0956 190.172 46.0925L187.702 46.0861L187.71 42.863L190.18 42.8694ZM195.263 49.6229L195.283 41.7415L194.013 41.7382L193.993 49.6196L195.263 49.6229ZM198.157 49.748C199.486 49.7514 200.417 49.1657 200.725 48.1783L200.807 48.1786L200.804 49.6372L201.968 49.6402L201.977 46.0877C201.981 44.6878 201.148 43.674 199.29 43.6692C197.431 43.6645 196.323 44.6615 196.319 45.9907L196.319 46.0378L197.578 46.041L197.578 45.994C197.58 45.1353 198.111 44.7837 199.193 44.7865C200.31 44.7894 200.733 45.1316 200.73 46.0962L200.73 46.4374L198.07 46.7128C196.917 46.8392 196.187 47.3079 196.184 48.2137C196.182 49.1783 196.945 49.7449 198.157 49.748ZM197.455 48.1346C197.456 47.6758 197.774 47.5237 198.433 47.4431L200.728 47.1902C200.725 48.343 199.829 48.8348 198.5 48.8314C197.771 48.8295 197.454 48.6051 197.455 48.1346ZM204.038 51.6453C205.238 51.6484 205.898 51.3325 206.383 50.2868L209.446 43.8131L208.046 43.8095L206.662 46.8997L206.105 48.3099L206.011 48.3096L205.439 46.9083L203.953 43.7989L202.529 43.7952L205.396 49.6491L205.254 49.9545C205.077 50.354 204.865 50.4947 204.347 50.4933L203.206 50.4904L203.203 51.6432L204.038 51.6453ZM212.816 49.7858C214.463 49.7901 215.547 49.1459 215.55 48.0519C215.553 47.0873 214.918 46.6151 213.531 46.4351L212.179 46.2434C211.297 46.1235 211.062 45.9582 211.063 45.4994C211.064 44.9465 211.441 44.7123 212.512 44.715C213.806 44.7184 214.158 45.0839 214.156 45.778L214.156 45.8485L215.415 45.8518L215.415 45.8165C215.418 44.4284 214.338 43.7081 212.55 43.7035C210.75 43.6988 209.819 44.4257 209.816 45.4492C209.814 46.4255 210.483 46.8978 211.588 47.0418L213.188 47.2577C214.023 47.3774 214.304 47.5311 214.303 48.0134C214.302 48.531 213.96 48.7654 212.819 48.7624C211.596 48.7593 211.138 48.5111 211.14 47.7464L211.14 47.6523L209.869 47.6491L209.869 47.6843C209.866 49.0371 210.934 49.781 212.816 49.7858ZM220.297 49.6875L220.3 48.5465L219.242 48.5437C218.512 48.5418 218.183 48.3528 218.185 47.6352L218.192 44.8944L220.31 44.8998L220.312 43.8411L218.195 43.8357L218.198 42.5534L216.94 42.5502L216.936 43.8324L215.948 43.8299L215.945 44.8886L216.934 44.8911L216.926 47.7025C216.923 49.1259 217.698 49.6808 218.956 49.684L220.297 49.6875ZM224.08 49.8149C226.032 49.8199 227.341 48.5881 227.346 46.7884C227.351 44.965 226.048 43.7383 224.095 43.7332C222.154 43.7282 220.845 44.9483 220.841 46.7716C220.836 48.5714 222.139 49.8099 224.08 49.8149ZM224.082 48.6856C222.671 48.682 222.084 48.0099 222.088 46.7748C222.091 45.5279 222.681 44.8471 224.092 44.8508C225.516 44.8544 226.102 45.5382 226.099 46.7851C226.096 48.0203 225.506 48.6893 224.082 48.6856ZM229.531 49.7113L229.539 46.4293C229.542 45.3824 229.955 44.8306 230.955 44.8332C231.825 44.8354 232.177 45.2245 232.175 46.0597L232.174 46.5773L233.432 46.5806L233.434 45.8159C233.437 44.7102 232.863 43.7559 231.534 43.7524C230.334 43.7493 229.697 44.5006 229.518 45.4412L229.436 45.441L229.44 43.8647L228.275 43.8617L228.26 49.708L229.531 49.7113ZM237.163 49.8486C238.904 49.8531 240.129 48.9976 240.133 47.7507L240.133 47.6448L238.863 47.6415L238.862 47.7356C238.86 48.4297 238.354 48.8283 237.13 48.8251C235.777 48.8217 235.226 48.2203 235.182 47.0909L240.146 47.1037C240.182 46.9273 240.194 46.7627 240.195 46.5509C240.199 44.7747 238.967 43.7716 237.155 43.7669C235.249 43.762 233.999 44.9822 233.995 46.8055C233.99 48.7582 235.245 49.8437 237.163 49.8486ZM237.129 44.7668C238.376 44.77 238.998 45.2892 238.995 46.3714L238.995 46.3949L235.196 46.3851C235.269 45.3384 235.835 44.7634 237.129 44.7668Z" fill="white"/>
<line x1="276.988" y1="19.352" x2="256.638" y2="54.3895" stroke="white" stroke-width="0.653522"/>
<defs>
<clipPath id="clip0_3229_44">
<rect width="15.6845" height="15.6845" fill="white" transform="translate(300.206 29.0511) rotate(0.14782)"/>
</clipPath>
</defs>
</svg>
