<svg width="532" height="319" viewBox="0 0 532 319" fill="none" xmlns="http://www.w3.org/2000/svg">
<g filter="url(#filter0_d_3229_47)">
<path d="M4.81911 130.02L527.157 129.818L527.185 200.818L4.52276 200.694L4.81911 130.02Z" fill="#FF5555"/>
<path d="M5.02486 200.194L5.31702 130.52L526.657 130.318L526.684 200.318L5.02486 200.194Z" stroke="black"/>
</g>
<g filter="url(#filter1_f_3229_47)">
<path d="M268.493 168.32L304.621 131.029L320.101 146.101L279.178 188.129L268.493 168.32Z" fill="black"/>
</g>
<path d="M347.553 144.879L348.543 164.438L367.447 159.322L349.152 166.308L359.859 182.706L347.561 167.465L335.275 182.715L345.97 166.309L327.669 159.337L346.577 164.439L347.553 144.879Z" fill="black"/>
<rect x="384.144" y="129.834" width="1.30704" height="71.2338" transform="rotate(-0.0221138 384.144 129.834)" fill="black"/>
<rect x="309.643" y="129.862" width="1.30704" height="71.2338" transform="rotate(-0.0221138 309.643 129.862)" fill="black"/>
<path d="M79.2807 168.681L79.2666 164.681L79.1917 163.446L79.3211 163.446L79.7842 164.679L81.4435 168.202L83.5844 168.195L85.2189 164.66L85.6733 163.423L85.8027 163.423L85.7482 164.658L85.7623 168.658L87.5268 168.652L87.4991 160.77L85.0994 160.779L83.325 164.667L82.6139 166.516L82.4845 166.517L81.7369 164.672L79.8765 160.797L77.4885 160.805L77.5162 168.687L79.2807 168.681ZM90.2644 168.76C91.5701 168.755 92.3916 168.199 92.6589 167.281L92.753 167.28L92.7578 168.633L94.4046 168.627L94.3925 165.169C94.3871 163.628 93.4542 162.62 91.4897 162.627C89.5488 162.633 88.329 163.649 88.3341 165.108L88.3342 165.143L90.1105 165.137L90.1103 165.09C90.108 164.419 90.4718 164.183 91.3658 164.18C92.3069 164.176 92.6487 164.387 92.6514 165.152L92.6522 165.375L90.124 165.643C88.8658 165.777 88.2207 166.32 88.2238 167.19C88.2272 168.179 88.9939 168.764 90.2644 168.76ZM89.9996 167.067C89.9986 166.784 90.1864 166.666 90.6098 166.629L92.6558 166.387C92.6117 167.222 91.9657 167.507 90.7658 167.511C90.2482 167.513 90.0007 167.384 89.9996 167.067ZM97.0635 168.618L97.056 166.489L98.4088 166.484L99.8867 168.608L101.969 168.601L99.8407 165.562L101.983 162.707L99.8895 162.715L98.3915 164.908L97.0505 164.913L97.0358 160.737L95.2713 160.743L95.299 168.624L97.0635 168.618ZM105.562 168.706C107.433 168.699 108.676 167.801 108.672 166.519L108.671 166.389L106.907 166.396L106.907 166.513C106.909 167.019 106.545 167.291 105.499 167.294C104.357 167.298 103.933 166.912 103.882 166.006L108.682 165.989C108.705 165.789 108.728 165.636 108.727 165.425C108.72 163.578 107.435 162.571 105.505 162.577C103.565 162.584 102.239 163.777 102.246 165.659C102.253 167.753 103.598 168.713 105.562 168.706ZM105.475 163.954C106.51 163.95 106.982 164.29 107.032 165.066L103.903 165.077C103.982 164.312 104.428 163.957 105.475 163.954ZM115.689 168.553L115.667 162.259L118.596 162.249L118.59 160.661L110.968 160.688L110.973 162.276L113.902 162.265L113.924 168.559L115.689 168.553ZM121.015 168.534L121.005 165.581C121.001 164.593 121.364 164.11 122.552 164.105C123.658 164.102 124.083 164.453 124.086 165.441L124.097 168.523L125.862 168.517L125.849 164.906C125.844 163.541 125.064 162.509 123.476 162.514C121.97 162.519 121.28 163.439 121.095 164.44L121.001 164.44L120.987 160.653L119.223 160.659L119.251 168.54L121.015 168.534ZM129.882 168.62C131.752 168.614 132.996 167.715 132.991 166.433L132.991 166.304L131.226 166.31L131.227 166.428C131.228 166.934 130.865 167.205 129.818 167.209C128.677 167.213 128.252 166.826 128.202 165.921L133.001 165.904C133.024 165.704 133.047 165.551 133.046 165.339C133.04 163.492 131.754 162.485 129.825 162.492C127.884 162.499 126.559 163.691 126.565 165.574C126.573 167.667 127.917 168.627 129.882 168.62ZM129.794 163.868C130.829 163.865 131.301 164.204 131.351 164.98L128.222 164.991C128.302 164.226 128.747 163.872 129.794 163.868ZM140.538 168.465C142.302 168.459 143.123 167.609 143.118 166.268C143.114 165.21 142.406 164.483 140.947 164.382L140.946 164.276C142.264 164.177 142.779 163.47 142.775 162.493C142.771 161.258 141.898 160.579 140.286 160.585L135.558 160.601L135.585 168.483L140.538 168.465ZM137.328 162.183L140.068 162.174C140.727 162.171 141.01 162.406 141.012 162.947C141.014 163.488 140.744 163.712 140.097 163.714L137.333 163.724L137.328 162.183ZM137.338 165.183L140.314 165.172C141.032 165.17 141.327 165.392 141.329 166.016C141.331 166.651 141.038 166.876 140.32 166.878L137.344 166.889L137.338 165.183ZM146.906 168.561C148.777 168.554 150.02 167.656 150.016 166.373L150.015 166.244L148.251 166.25L148.251 166.368C148.253 166.874 147.889 167.146 146.842 167.149C145.701 167.153 145.277 166.767 145.226 165.861L150.026 165.844C150.049 165.644 150.072 165.491 150.071 165.279C150.064 163.432 148.779 162.425 146.849 162.432C144.908 162.439 143.583 163.632 143.59 165.514C143.597 167.608 144.942 168.568 146.906 168.561ZM146.819 163.809C147.854 163.805 148.326 164.144 148.376 164.921L145.247 164.932C145.326 164.167 145.772 163.812 146.819 163.809ZM153.807 168.536C155.63 168.53 156.721 167.797 156.718 166.691C156.714 165.715 156.124 165.187 154.547 165.017L153.288 164.868C152.511 164.777 152.346 164.648 152.345 164.342C152.344 163.966 152.567 163.812 153.449 163.809C154.531 163.805 154.767 164.051 154.769 164.533L154.769 164.604L156.534 164.598L156.534 164.563C156.529 163.127 155.432 162.402 153.503 162.409C151.48 162.416 150.6 163.242 150.604 164.278C150.607 165.266 151.268 165.793 152.445 165.918L154.104 166.112C154.798 166.204 154.975 166.297 154.976 166.627C154.978 166.98 154.755 167.133 153.813 167.137C152.814 167.14 152.484 167 152.482 166.471L152.482 166.365L150.717 166.371L150.717 166.406C150.722 167.771 151.819 168.543 153.807 168.536ZM161.588 168.391L161.582 166.803L160.524 166.807C159.9 166.809 159.676 166.657 159.674 166.069L159.667 163.963L161.572 163.957L161.567 162.498L159.662 162.505L159.658 161.364L157.893 161.37L157.897 162.511L156.968 162.514L156.973 163.973L157.902 163.97L157.91 166.275C157.916 167.757 158.753 168.401 160.129 168.397L161.588 168.391ZM165.828 168.377L165.818 165.436L170.547 165.419L170.541 163.843L165.812 163.859L165.806 162.083L170.712 162.066L170.706 160.478L164.036 160.501L164.064 168.383L165.828 168.377ZM173.227 161.857L173.222 160.469L171.457 160.475L171.462 161.863L173.227 161.857ZM173.249 168.35L173.229 162.457L171.464 162.463L171.485 168.357L173.249 168.35ZM175.937 168.341L175.927 165.365C175.923 164.365 176.322 163.917 177.439 163.913C178.522 163.909 178.911 164.307 178.914 165.249L178.925 168.331L180.69 168.324L180.677 164.654C180.672 163.348 179.904 162.316 178.293 162.322C176.752 162.327 176.049 163.271 175.9 164.259L175.794 164.26L175.787 162.448L174.152 162.454L174.173 168.347L175.937 168.341ZM183.394 168.432C184.7 168.428 185.522 167.872 185.789 166.954L185.883 166.953L185.888 168.306L187.535 168.3L187.523 164.842C187.517 163.301 186.584 162.293 184.62 162.299C182.679 162.306 181.459 163.322 181.464 164.781L181.464 164.816L183.241 164.81L183.24 164.763C183.238 164.092 183.602 163.856 184.496 163.853C185.437 163.849 185.779 164.06 185.781 164.824L185.782 165.048L183.254 165.316C181.996 165.449 181.351 165.993 181.354 166.863C181.357 167.851 182.124 168.437 183.394 168.432ZM183.13 166.739C183.129 166.457 183.316 166.339 183.74 166.302L185.786 166.06C185.742 166.895 185.096 167.18 183.896 167.184C183.378 167.186 183.131 167.057 183.13 166.739ZM190.194 168.291L190.183 165.315C190.18 164.315 190.578 163.867 191.695 163.863C192.778 163.859 193.167 164.257 193.171 165.198L193.181 168.28L194.946 168.274L194.933 164.604C194.928 163.298 194.16 162.266 192.549 162.272C191.008 162.277 190.305 163.221 190.156 164.209L190.05 164.21L190.043 162.398L188.408 162.404L188.429 168.297L190.194 168.291ZM198.98 168.378C200.874 168.371 202.164 167.343 202.159 165.826L202.158 165.661L200.405 165.667L200.406 165.761C200.408 166.514 199.856 166.787 198.939 166.79C197.892 166.793 197.408 166.407 197.405 165.325C197.401 164.231 197.882 163.841 198.929 163.837C199.846 163.834 200.4 164.103 200.403 164.855L200.403 164.95L202.156 164.943L202.155 164.779C202.15 163.249 200.852 162.242 198.958 162.249C196.935 162.256 195.645 163.449 195.652 165.331C195.658 167.19 196.957 168.385 198.98 168.378ZM204.668 161.747L204.663 160.359L202.899 160.365L202.904 161.753L204.668 161.747ZM204.691 168.24L204.67 162.347L202.906 162.353L202.926 168.246L204.691 168.24ZM207.426 168.348C208.732 168.343 209.554 167.788 209.821 166.869L209.915 166.869L209.92 168.222L211.567 168.216L211.555 164.757C211.549 163.216 210.616 162.208 208.652 162.215C206.711 162.222 205.491 163.238 205.496 164.696L205.496 164.732L207.273 164.725L207.272 164.678C207.27 164.008 207.634 163.771 208.528 163.768C209.469 163.765 209.811 163.975 209.814 164.74L209.814 164.964L207.286 165.231C206.028 165.365 205.383 165.908 205.386 166.779C205.389 167.767 206.156 168.353 207.426 168.348ZM207.162 166.655C207.161 166.373 207.349 166.254 207.772 166.218L209.818 165.975C209.774 166.811 209.128 167.095 207.928 167.099C207.41 167.101 207.163 166.973 207.162 166.655ZM214.226 168.207L214.198 160.325L212.433 160.331L212.461 168.213L214.226 168.207ZM220.858 168.183C223.387 168.174 224.982 166.698 224.973 164.228C224.964 161.758 223.359 160.293 220.83 160.302L217.031 160.315L217.058 168.197L220.858 168.183ZM220.836 161.89C222.436 161.884 223.084 162.341 223.091 164.235C223.098 166.129 222.452 166.59 220.852 166.595L218.817 166.602L218.801 161.897L220.836 161.89ZM228.882 168.273C230.752 168.266 231.996 167.368 231.991 166.086L231.991 165.956L230.226 165.962L230.227 166.08C230.229 166.586 229.865 166.858 228.818 166.861C227.677 166.865 227.252 166.479 227.202 165.573L232.001 165.556C232.024 165.356 232.047 165.203 232.046 164.991C232.04 163.145 230.754 162.137 228.825 162.144C226.884 162.151 225.559 163.344 225.566 165.226C225.573 167.32 226.917 168.28 228.882 168.273ZM228.794 163.521C229.83 163.517 230.301 163.856 230.351 164.633L227.222 164.644C227.302 163.879 227.748 163.524 228.794 163.521ZM235.947 168.248C237.841 168.241 239.131 167.213 239.126 165.696L239.125 165.531L237.373 165.537L237.373 165.631C237.376 166.384 236.824 166.657 235.906 166.66C234.859 166.664 234.375 166.277 234.372 165.195C234.368 164.101 234.849 163.711 235.896 163.707C236.813 163.704 237.367 163.973 237.37 164.726L237.37 164.82L239.123 164.814L239.122 164.649C239.117 163.12 237.819 162.113 235.925 162.119C233.902 162.126 232.612 163.319 232.619 165.201C232.625 167.06 233.924 168.255 235.947 168.248ZM241.635 161.617L241.63 160.229L239.866 160.235L239.871 161.623L241.635 161.617ZM241.658 168.11L241.637 162.217L239.873 162.223L239.894 168.116L241.658 168.11ZM245.558 168.214C247.382 168.208 248.473 167.475 248.469 166.369C248.466 165.392 247.876 164.865 246.299 164.694L245.039 164.546C244.263 164.454 244.098 164.326 244.097 164.02C244.095 163.643 244.318 163.49 245.2 163.486C246.283 163.483 246.519 163.729 246.521 164.211L246.521 164.282L248.285 164.276L248.285 164.24C248.28 162.805 247.184 162.08 245.254 162.086C243.231 162.094 242.352 162.92 242.355 163.955C242.359 164.943 243.019 165.47 244.196 165.596L245.856 165.79C246.55 165.881 246.727 165.975 246.728 166.304C246.729 166.657 246.506 166.811 245.565 166.814C244.565 166.818 244.235 166.678 244.233 166.148L244.233 166.043L242.469 166.049L242.469 166.084C242.473 167.449 243.57 168.221 245.558 168.214ZM250.929 161.584L250.924 160.196L249.159 160.202L249.164 161.59L250.929 161.584ZM250.952 168.078L250.931 162.184L249.166 162.19L249.187 168.084L250.952 168.078ZM255.016 168.181C257.028 168.174 258.376 166.969 258.37 165.111C258.363 163.228 257.006 162.045 254.995 162.052C252.983 162.059 251.635 163.252 251.641 165.134C251.648 166.993 253.005 168.188 255.016 168.181ZM255.011 166.616C253.811 166.621 253.398 166.163 253.394 165.128C253.39 164.093 253.8 163.609 255 163.605C256.188 163.601 256.614 164.082 256.617 165.117C256.621 166.152 256.199 166.612 255.011 166.616ZM260.865 168.043L260.855 165.067C260.851 164.067 261.25 163.618 262.367 163.614C263.45 163.611 263.839 164.009 263.842 164.95L263.853 168.032L265.618 168.026L265.605 164.356C265.6 163.05 264.832 162.018 263.22 162.023C261.679 162.029 260.977 162.972 260.827 163.961L260.722 163.961L260.715 162.15L259.08 162.155L259.101 168.049L260.865 168.043ZM269.487 168.13C271.31 168.124 272.402 167.39 272.398 166.285C272.394 165.308 271.804 164.781 270.227 164.61L268.968 164.462C268.191 164.37 268.026 164.241 268.025 163.936C268.024 163.559 268.247 163.406 269.129 163.402C270.211 163.399 270.447 163.645 270.449 164.127L270.449 164.198L272.214 164.191L272.214 164.156C272.209 162.721 271.112 161.996 269.183 162.002C267.16 162.009 266.28 162.836 266.284 163.871C266.287 164.859 266.948 165.386 268.125 165.512L269.784 165.706C270.479 165.797 270.655 165.891 270.657 166.22C270.658 166.573 270.435 166.727 269.494 166.73C268.494 166.734 268.164 166.594 268.162 166.064L268.162 165.958L266.397 165.965L266.397 166C266.402 167.365 267.499 168.137 269.487 168.13Z" fill="black"/>
<path d="M405.429 159.281C408.005 159.28 409.298 157.986 409.298 155.868L409.296 151.281L407.531 151.281L407.533 155.74C407.534 157.081 407.04 157.563 405.428 157.564C403.828 157.564 403.322 157.082 403.322 155.741L403.32 151.283L401.556 151.284L401.557 155.871C401.558 157.989 402.864 159.282 405.429 159.281ZM411.949 152.668L411.949 151.28L410.184 151.28L410.185 152.668L411.949 152.668ZM411.952 159.161L411.949 153.268L410.185 153.268L410.187 159.162L411.952 159.161ZM415.11 159.16L415.109 154.725L416.932 154.724L416.931 153.266L415.038 153.267C414.99 152.69 415.355 152.561 416.131 152.56L416.931 152.56L416.931 151.278L416.413 151.278C414.601 151.279 413.567 152.079 413.379 153.267L412.508 153.268L412.509 154.726L413.344 154.726L413.346 159.161L415.11 159.16ZM419.281 159.158L419.28 155.747C419.279 155.006 419.561 154.641 420.35 154.641C421.067 154.641 421.326 154.923 421.326 155.57L421.327 156.181L423.091 156.181L423.091 155.204C423.09 154.052 422.549 153.146 421.231 153.147C420.043 153.147 419.42 153.877 419.256 154.829L419.15 154.829L419.149 153.265L417.514 153.266L417.516 159.159L419.281 159.158ZM424.861 161.156C426.343 161.155 427.131 160.814 427.696 159.579L430.61 153.261L428.646 153.261L427.53 155.944L427.06 157.344L426.942 157.344L426.447 155.956L425.199 153.263L423.2 153.263L426.084 159.179C425.966 159.438 425.778 159.556 425.343 159.556L423.896 159.557L423.897 161.156L424.861 161.156ZM434.617 159.152L434.616 156.976L436.969 156.975C438.792 156.975 439.968 155.927 439.967 154.116C439.967 152.304 438.79 151.269 436.967 151.27L432.849 151.272L432.852 159.153L434.617 159.152ZM436.779 152.858C437.755 152.858 438.214 153.152 438.215 154.116C438.215 155.104 437.756 155.387 436.78 155.387L434.615 155.388L434.614 152.859L436.779 152.858ZM442.36 159.149L442.358 155.738C442.358 154.997 442.64 154.632 443.428 154.632C444.146 154.632 444.405 154.914 444.405 155.561L444.405 156.173L446.17 156.172L446.169 155.195C446.169 154.043 445.628 153.137 444.31 153.138C443.122 153.138 442.499 153.868 442.334 154.821L442.229 154.821L442.228 153.256L440.593 153.257L440.595 159.15L442.36 159.149ZM449.939 159.264C451.809 159.263 453.056 158.369 453.055 157.087L453.055 156.957L451.291 156.958L451.291 157.076C451.291 157.581 450.927 157.852 449.88 157.853C448.739 157.853 448.315 157.465 448.268 156.559L453.067 156.557C453.09 156.357 453.114 156.204 453.114 155.993C453.113 154.146 451.831 153.135 449.901 153.135C447.96 153.136 446.632 154.325 446.632 156.207C446.633 158.301 447.975 159.265 449.939 159.264ZM449.867 154.512C450.902 154.511 451.372 154.852 451.42 155.629L448.291 155.63C448.373 154.865 448.82 154.512 449.867 154.512ZM455.628 159.144L455.627 156.168C455.626 155.145 455.932 154.721 457.002 154.721C458.014 154.72 458.355 155.085 458.356 156.061L458.357 159.143L460.121 159.143L460.12 156.166C460.12 155.143 460.426 154.719 461.496 154.719C462.508 154.719 462.849 155.083 462.849 156.06L462.851 159.142L464.615 159.141L464.614 155.471C464.613 154.13 463.872 153.13 462.354 153.131C460.837 153.131 460.237 154.061 460.096 155.061L459.991 155.061C459.861 153.967 459.166 153.132 457.802 153.132C456.32 153.133 455.732 154.051 455.591 155.039L455.497 155.039L455.496 153.251L453.861 153.252L453.863 159.145L455.628 159.144ZM467.274 152.646L467.273 151.258L465.509 151.259L465.509 152.647L467.274 152.646ZM467.276 159.14L467.274 153.246L465.51 153.247L465.512 159.141L467.276 159.14ZM470.635 159.256C472.188 159.256 472.905 158.326 473.058 157.338L473.152 157.338L473.152 159.138L474.799 159.137L474.797 153.243L473.032 153.244L473.034 156.232C473.034 157.232 472.622 157.679 471.47 157.68C470.352 157.68 469.952 157.28 469.952 156.327L469.95 153.245L468.186 153.246L468.187 156.916C468.188 158.234 468.976 159.257 470.635 159.256ZM477.466 159.136L477.465 156.16C477.464 155.136 477.77 154.713 478.841 154.712C479.852 154.712 480.193 155.076 480.194 156.053L480.195 159.135L481.96 159.134L481.958 156.158C481.958 155.135 482.264 154.711 483.334 154.711C484.346 154.71 484.687 155.075 484.687 156.051L484.689 159.133L486.453 159.132L486.452 155.462C486.451 154.121 485.71 153.122 484.192 153.122C482.675 153.123 482.075 154.052 481.934 155.052L481.829 155.052C481.699 153.958 481.004 153.123 479.64 153.124C478.158 153.125 477.57 154.042 477.429 155.03L477.335 155.031L477.334 153.242L475.699 153.243L475.701 159.137L477.466 159.136Z" fill="black"/>
<path d="M402.806 177.77L402.805 174.958L407.092 174.956L407.092 173.952L402.805 173.954L402.804 171.779L407.248 171.777L407.248 170.763L401.674 170.765L401.677 177.771L402.806 177.77ZM409.219 177.768L409.218 174.851C409.218 173.92 409.583 173.428 410.472 173.428C411.246 173.428 411.56 173.773 411.56 174.515L411.56 174.975L412.679 174.975L412.679 174.295C412.678 173.312 412.166 172.465 410.984 172.466C409.918 172.466 409.353 173.136 409.197 173.972L409.123 173.972L409.123 172.571L408.088 172.571L408.09 177.768L409.219 177.768ZM416.004 177.87C417.551 177.869 418.638 177.105 418.638 175.997L418.638 175.903L417.509 175.903L417.509 175.987C417.509 176.604 417.059 176.96 415.972 176.96C414.769 176.961 414.278 176.427 414.235 175.424L418.648 175.422C418.679 175.265 418.69 175.119 418.69 174.93C418.689 173.352 417.591 172.463 415.981 172.464C414.287 172.464 413.179 173.552 413.179 175.173C413.18 176.909 414.299 177.87 416.004 177.87ZM415.96 173.353C417.068 173.352 417.623 173.812 417.623 174.774L417.623 174.795L414.246 174.796C414.308 173.866 414.81 173.353 415.96 173.353ZM422.151 177.867C423.698 177.867 424.785 177.103 424.785 175.995L424.785 175.901L423.656 175.901L423.656 175.985C423.656 176.602 423.206 176.957 422.119 176.958C420.917 176.958 420.425 176.425 420.383 175.421L424.795 175.42C424.827 175.263 424.837 175.116 424.837 174.928C424.836 173.349 423.738 172.461 422.128 172.461C420.434 172.462 419.326 173.55 419.326 175.171C419.327 176.906 420.446 177.868 422.151 177.867ZM422.107 173.35C423.216 173.35 423.77 173.81 423.77 174.772L423.77 174.793L420.393 174.794C420.455 173.863 420.957 173.351 422.107 173.35ZM430.953 177.759L430.95 171.768L433.7 171.767L433.7 170.753L427.071 170.755L427.071 171.769L429.832 171.768L429.834 177.76L430.953 177.759ZM435.493 177.758L435.492 174.84C435.491 173.91 435.857 173.418 436.746 173.418C437.52 173.418 437.833 173.762 437.834 174.505L437.834 174.965L438.953 174.965L438.952 174.285C438.952 173.302 438.439 172.455 437.258 172.456C436.191 172.456 435.627 173.125 435.47 173.962L435.397 173.962L435.397 172.561L434.361 172.561L434.363 177.758L435.493 177.758ZM440.79 171.952L440.79 170.75L439.66 170.75L439.661 171.953L440.79 171.952ZM440.792 177.756L440.79 172.559L439.661 172.559L439.663 177.756L440.792 177.756ZM443.365 177.859C444.546 177.859 445.372 177.336 445.644 176.457L445.717 176.457L445.717 177.754L446.753 177.753L446.751 174.596C446.751 173.351 446.008 172.452 444.356 172.453C442.704 172.454 441.721 173.343 441.722 174.524L441.722 174.566L442.841 174.566L442.841 174.524C442.84 173.761 443.311 173.447 444.273 173.446C445.266 173.446 445.643 173.749 445.643 174.606L445.643 174.91L443.28 175.162C442.255 175.277 441.607 175.695 441.608 176.501C441.608 177.358 442.288 177.86 443.365 177.859ZM442.737 176.427C442.737 176.019 443.019 175.883 443.604 175.81L445.643 175.579C445.644 176.604 444.849 177.043 443.668 177.043C443.019 177.044 442.737 176.845 442.737 176.427ZM448.89 177.753L448.887 170.747L447.758 170.747L447.761 177.753L448.89 177.753Z" fill="black"/>
<defs>
<filter id="filter0_d_3229_47" x="0.522705" y="129.818" width="530.662" height="79" filterUnits="userSpaceOnUse" color-interpolation-filters="sRGB">
<feFlood flood-opacity="0" result="BackgroundImageFix"/>
<feColorMatrix in="SourceAlpha" type="matrix" values="0 0 0 0 0 0 0 0 0 0 0 0 0 0 0 0 0 0 127 0" result="hardAlpha"/>
<feOffset dy="4"/>
<feGaussianBlur stdDeviation="2"/>
<feComposite in2="hardAlpha" operator="out"/>
<feColorMatrix type="matrix" values="0 0 0 0 0 0 0 0 0 0 0 0 0 0 0 0 0 0 0.25 0"/>
<feBlend mode="normal" in2="BackgroundImageFix" result="effect1_dropShadow_3229_47"/>
<feBlend mode="normal" in="SourceGraphic" in2="effect1_dropShadow_3229_47" result="shape"/>
</filter>
<filter id="filter1_f_3229_47" x="137.789" y="0.324844" width="313.016" height="318.509" filterUnits="userSpaceOnUse" color-interpolation-filters="sRGB">
<feFlood flood-opacity="0" result="BackgroundImageFix"/>
<feBlend mode="normal" in="SourceGraphic" in2="BackgroundImageFix" result="shape"/>
<feGaussianBlur stdDeviation="65.3521" result="effect1_foregroundBlur_3229_47"/>
</filter>
</defs>
</svg>
