<svg width="534" height="74" viewBox="0 0 534 74" fill="none" xmlns="http://www.w3.org/2000/svg">
<path d="M0.462807 9.43855C0.462804 5.02027 4.04453 1.43855 8.46281 1.43855L525.488 1.43855C529.903 1.43855 533.483 5.01487 533.488 9.42969L533.55 65.0972C533.555 69.5155 529.977 73.1011 525.559 73.106L8.4717 73.6788C4.04996 73.6837 0.462843 70.1006 0.462841 65.6788L0.462807 9.43855Z" fill="#FF5555"/>
<path d="M77.2807 40.6805L77.2666 36.681L77.1917 35.4461L77.3211 35.4456L77.7842 36.6791L79.4435 40.2023L81.5844 40.1948L83.2189 36.6601L83.6733 35.4233L83.8027 35.4228L83.7482 36.6582L83.7623 40.6577L85.5268 40.6515L85.4991 32.7701L83.0994 32.7785L81.325 36.6667L80.6139 38.5161L80.4845 38.5165L79.7369 36.6723L77.8765 32.7969L75.4885 32.8053L75.5162 40.6867L77.2807 40.6805ZM88.2644 40.7595C89.5701 40.755 90.3916 40.1992 90.6589 39.2807L90.753 39.2804L90.7578 40.6331L92.4046 40.6274L92.3925 37.1689C92.3871 35.628 91.4542 34.6196 89.4897 34.6265C87.5488 34.6333 86.329 35.6492 86.3341 37.1079L86.3342 37.1432L88.1105 37.1369L88.1103 37.0899C88.108 36.4194 88.4718 36.1828 89.3658 36.1797C90.3069 36.1764 90.6487 36.3869 90.6514 37.1515L90.6522 37.375L88.124 37.6427C86.8658 37.7765 86.2207 38.3199 86.2238 39.1904C86.2272 40.1785 86.9939 40.764 88.2644 40.7595ZM87.9996 39.0665C87.9986 38.7842 88.1864 38.6659 88.6098 38.6291L90.6558 38.3867C90.6117 39.222 89.9657 39.5066 88.7658 39.5109C88.2482 39.5127 88.0007 39.3841 87.9996 39.0665ZM95.0635 40.618L95.056 38.4889L96.4088 38.4841L97.8867 40.6081L99.9688 40.6008L97.8407 37.5615L99.9834 34.7072L97.8895 34.7146L96.3915 36.9079L95.0505 36.9126L95.0358 32.7366L93.2713 32.7428L93.299 40.6242L95.0635 40.618ZM103.562 40.7058C105.433 40.6992 106.676 39.8008 106.672 38.5186L106.671 38.3892L104.907 38.3954L104.907 38.5131C104.909 39.0189 104.545 39.2907 103.499 39.2944C102.357 39.2984 101.933 38.9117 101.882 38.0061L106.682 37.9893C106.705 37.7892 106.728 37.6362 106.727 37.4244C106.72 35.5776 105.435 34.5705 103.505 34.5772C101.565 34.5841 100.239 35.7768 100.246 37.659C100.253 39.7528 101.598 40.7127 103.562 40.7058ZM103.475 35.9537C104.51 35.95 104.982 36.2895 105.032 37.0657L101.903 37.0767C101.982 36.3118 102.428 35.9574 103.475 35.9537ZM113.689 40.5526L113.667 34.2592L116.596 34.2489L116.59 32.6609L108.968 32.6877L108.973 34.2757L111.902 34.2654L111.924 40.5588L113.689 40.5526ZM119.015 40.5339L119.005 37.5813C119.001 36.5932 119.364 36.1096 120.552 36.1054C121.658 36.1015 122.083 36.453 122.086 37.4411L122.097 40.5231L123.862 40.5169L123.849 36.9055C123.844 35.541 123.064 34.5085 121.476 34.5141C119.97 34.5194 119.28 35.4394 119.095 36.4399L119.001 36.4403L118.987 32.6525L117.223 32.6587L117.251 40.5401L119.015 40.5339ZM127.882 40.6204C129.752 40.6138 130.996 39.7154 130.991 38.4332L130.991 38.3038L129.226 38.31L129.227 38.4277C129.228 38.9335 128.865 39.2053 127.818 39.209C126.677 39.213 126.252 38.8263 126.202 37.9207L131.001 37.9038C131.024 37.7038 131.047 37.5508 131.046 37.339C131.04 35.4922 129.754 34.485 127.825 34.4918C125.884 34.4986 124.559 35.6914 124.565 37.5735C124.573 39.6674 125.917 40.6273 127.882 40.6204ZM127.794 35.8683C128.829 35.8646 129.301 36.2041 129.351 36.9803L126.222 36.9913C126.302 36.2264 126.747 35.8719 127.794 35.8683ZM138.538 40.4653C140.302 40.4591 141.123 39.6093 141.118 38.2683C141.114 37.2096 140.406 36.4827 138.947 36.382L138.946 36.2761C140.264 36.1774 140.779 35.4697 140.775 34.4934C140.771 33.2582 139.898 32.579 138.286 32.5847L133.558 32.6013L133.585 40.4827L138.538 40.4653ZM135.328 34.1831L138.068 34.1735C138.727 34.1712 139.01 34.4055 139.012 34.9466C139.014 35.4877 138.744 35.7122 138.097 35.7144L135.333 35.7241L135.328 34.1831ZM135.338 37.1828L138.314 37.1723C139.032 37.1698 139.327 37.3923 139.329 38.0157C139.331 38.651 139.038 38.8755 138.32 38.878L135.344 38.8885L135.338 37.1828ZM144.906 40.5606C146.777 40.554 148.02 39.6556 148.016 38.3734L148.015 38.244L146.251 38.2502L146.251 38.3679C146.253 38.8737 145.889 39.1455 144.842 39.1492C143.701 39.1532 143.277 38.7665 143.226 37.8609L148.026 37.844C148.049 37.644 148.072 37.491 148.071 37.2792C148.064 35.4324 146.779 34.4252 144.849 34.432C142.908 34.4388 141.583 35.6316 141.59 37.5137C141.597 39.6076 142.942 40.5675 144.906 40.5606ZM144.819 35.8085C145.854 35.8048 146.326 36.1443 146.376 36.9205L143.247 36.9315C143.326 36.1666 143.772 35.8121 144.819 35.8085ZM151.807 40.5363C153.63 40.5299 154.721 39.7968 154.718 38.691C154.714 37.7147 154.124 37.1874 152.547 37.0165L151.288 36.868C150.511 36.7766 150.346 36.6478 150.345 36.3419C150.344 35.9655 150.567 35.8118 151.449 35.8087C152.531 35.8049 152.767 36.0511 152.769 36.5334L152.769 36.604L154.534 36.5978L154.534 36.5625C154.529 35.1274 153.432 34.4019 151.503 34.4086C149.48 34.4158 148.6 35.2423 148.604 36.2775C148.607 37.2656 149.268 37.7926 150.445 37.9179L152.104 38.112C152.798 38.2037 152.975 38.2972 152.976 38.6266C152.978 38.9795 152.755 39.1332 151.813 39.1365C150.814 39.14 150.484 39 150.482 38.4706L150.482 38.3648L148.717 38.371L148.717 38.4062C148.722 39.7708 149.819 40.5433 151.807 40.5363ZM159.588 40.3914L159.582 38.8033L158.524 38.807C157.9 38.8092 157.676 38.6571 157.674 38.0689L157.667 35.9633L159.572 35.9566L159.567 34.498L157.662 34.5047L157.658 33.3636L155.893 33.3698L155.897 34.5108L154.968 34.5141L154.973 35.9728L155.902 35.9695L155.91 38.2751C155.916 39.7573 156.753 40.4013 158.129 40.3965L159.588 40.3914ZM163.828 40.3765L163.818 37.4357L168.547 37.419L168.541 35.8428L163.812 35.8594L163.806 34.0831L168.712 34.0659L168.706 32.4778L162.036 32.5013L162.064 40.3827L163.828 40.3765ZM171.227 33.8571L171.222 32.469L169.457 32.4752L169.462 33.8633L171.227 33.8571ZM171.249 40.3504L171.229 34.457L169.464 34.4632L169.485 40.3566L171.249 40.3504ZM173.937 40.341L173.927 37.3649C173.923 36.365 174.322 35.9166 175.439 35.9126C176.522 35.9088 176.911 36.3074 176.914 37.2485L176.925 40.3305L178.69 40.3243L178.677 36.6541C178.672 35.3484 177.904 34.3159 176.293 34.3216C174.752 34.327 174.049 35.2705 173.9 36.2592L173.794 36.2596L173.787 34.448L172.152 34.4538L172.173 40.3472L173.937 40.341ZM181.394 40.4324C182.7 40.4278 183.522 39.8721 183.789 38.9536L183.883 38.9532L183.888 40.306L185.535 40.3002L185.523 36.8418C185.517 35.3008 184.584 34.2924 182.62 34.2993C180.679 34.3062 179.459 35.3221 179.464 36.7808L179.464 36.816L181.241 36.8098L181.24 36.7628C181.238 36.0922 181.602 35.8557 182.496 35.8526C183.437 35.8493 183.779 36.0598 183.781 36.8244L183.782 37.0479L181.254 37.3156C179.996 37.4494 179.351 37.9928 179.354 38.8633C179.357 39.8514 180.124 40.4369 181.394 40.4324ZM181.13 38.7394C181.129 38.4571 181.316 38.3388 181.74 38.302L183.786 38.0596C183.742 38.8949 183.096 39.1795 181.896 39.1837C181.378 39.1855 181.131 39.057 181.13 38.7394ZM188.194 40.2909L188.183 37.3148C188.18 36.3149 188.578 35.8665 189.695 35.8626C190.778 35.8588 191.167 36.2574 191.171 37.1984L191.181 40.2804L192.946 40.2742L192.933 36.6041C192.928 35.2983 192.16 34.2658 190.549 34.2715C189.008 34.2769 188.305 35.2205 188.156 36.2091L188.05 36.2095L188.043 34.3979L186.408 34.4037L186.429 40.2971L188.194 40.2909ZM196.98 40.3777C198.874 40.371 200.164 39.3431 200.159 37.8256L200.158 37.6609L198.405 37.6671L198.406 37.7612C198.408 38.514 197.856 38.7865 196.939 38.7897C195.892 38.7934 195.408 38.4069 195.405 37.3247C195.401 36.2307 195.882 35.8408 196.929 35.8372C197.846 35.8339 198.4 36.1025 198.403 36.8554L198.403 36.9495L200.156 36.9433L200.155 36.7787C200.15 35.2494 198.852 34.2423 196.958 34.249C194.935 34.2561 193.645 35.4487 193.652 37.3309C193.658 39.1895 194.957 40.3848 196.98 40.3777ZM202.668 33.7466L202.663 32.3586L200.899 32.3648L200.904 33.7528L202.668 33.7466ZM202.691 40.24L202.67 34.3466L200.906 34.3528L200.926 40.2462L202.691 40.24ZM205.426 40.348C206.732 40.3434 207.554 39.7876 207.821 38.8692L207.915 38.8688L207.92 40.2216L209.567 40.2158L209.555 36.7574C209.549 35.2164 208.616 34.208 206.652 34.2149C204.711 34.2218 203.491 35.2377 203.496 36.6963L203.496 36.7316L205.273 36.7254L205.272 36.6783C205.27 36.0078 205.634 35.7713 206.528 35.7681C207.469 35.7648 207.811 35.9754 207.814 36.74L207.814 36.9635L205.286 37.2312C204.028 37.365 203.383 37.9084 203.386 38.7789C203.389 39.767 204.156 40.3525 205.426 40.348ZM205.162 38.655C205.161 38.3727 205.349 38.2544 205.772 38.2176L207.818 37.9751C207.774 38.8105 207.128 39.0951 205.928 39.0993C205.41 39.1011 205.163 38.9726 205.162 38.655ZM212.226 40.2065L212.198 32.3251L210.433 32.3313L210.461 40.2127L212.226 40.2065ZM218.858 40.1832C221.387 40.1743 222.982 38.6983 222.973 36.228C222.964 33.7577 221.359 32.2929 218.83 32.3018L215.031 32.3151L215.058 40.1965L218.858 40.1832ZM218.836 33.8898C220.436 33.8842 221.084 34.3407 221.091 36.2346C221.098 38.1285 220.452 38.5895 218.852 38.5951L216.817 38.6023L216.801 33.897L218.836 33.8898ZM226.882 40.2726C228.752 40.2661 229.996 39.3677 229.991 38.0855L229.991 37.9561L228.226 37.9623L228.227 38.0799C228.229 38.5857 227.865 38.8576 226.818 38.8612C225.677 38.8653 225.252 38.4786 225.202 37.5729L230.001 37.5561C230.024 37.356 230.047 37.203 230.046 36.9913C230.04 35.1444 228.754 34.1373 226.825 34.1441C224.884 34.1509 223.559 35.3437 223.566 37.2258C223.573 39.3197 224.917 40.2795 226.882 40.2726ZM226.794 35.5205C227.83 35.5169 228.301 35.8564 228.351 36.6326L225.222 36.6436C225.302 35.8787 225.748 35.5242 226.794 35.5205ZM233.947 40.2478C235.841 40.2412 237.131 39.2132 237.126 37.6957L237.125 37.5311L235.373 37.5372L235.373 37.6313C235.376 38.3842 234.824 38.6567 233.906 38.6599C232.859 38.6636 232.375 38.2771 232.372 37.1949C232.368 36.1009 232.849 35.711 233.896 35.7073C234.813 35.7041 235.367 35.9727 235.37 36.7256L235.37 36.8197L237.123 36.8135L237.122 36.6488C237.117 35.1196 235.819 34.1125 233.925 34.1191C231.902 34.1262 230.612 35.3189 230.619 37.201C230.625 39.0596 231.924 40.2549 233.947 40.2478ZM239.635 33.6168L239.63 32.2287L237.866 32.2349L237.871 33.623L239.635 33.6168ZM239.658 40.1101L239.637 34.2167L237.873 34.2229L237.894 40.1163L239.658 40.1101ZM243.558 40.2141C245.382 40.2077 246.473 39.4745 246.469 38.3687C246.466 37.3924 245.876 36.8651 244.299 36.6942L243.039 36.5457C242.263 36.4543 242.098 36.3255 242.097 36.0196C242.095 35.6432 242.318 35.4895 243.2 35.4864C244.283 35.4826 244.519 35.7288 244.521 36.2111L244.521 36.2817L246.285 36.2755L246.285 36.2402C246.28 34.8051 245.184 34.0796 243.254 34.0864C241.231 34.0935 240.352 34.92 240.355 35.9552C240.359 36.9433 241.019 37.4703 242.196 37.5956L243.856 37.7897C244.55 37.8814 244.727 37.9749 244.728 38.3043C244.729 38.6572 244.506 38.8109 243.565 38.8142C242.565 38.8177 242.235 38.6777 242.233 38.1483L242.233 38.0425L240.469 38.0487L240.469 38.084C240.473 39.4485 241.57 40.221 243.558 40.2141ZM248.929 33.5841L248.924 32.1961L247.159 32.2023L247.164 33.5903L248.929 33.5841ZM248.952 40.0775L248.931 34.1841L247.166 34.1903L247.187 40.0837L248.952 40.0775ZM253.016 40.1808C255.028 40.1738 256.376 38.9692 256.37 37.1106C256.363 35.2284 255.006 34.0451 252.995 34.0522C250.983 34.0592 249.635 35.2521 249.641 37.1342C249.648 38.9928 251.005 40.1879 253.016 40.1808ZM253.011 38.6163C251.811 38.6205 251.398 38.1632 251.394 37.128C251.39 36.0929 251.8 35.6091 253 35.6049C254.188 35.6007 254.614 36.0815 254.617 37.1167C254.621 38.1519 254.199 38.6121 253.011 38.6163ZM258.865 40.0427L258.855 37.0665C258.851 36.0667 259.25 35.6182 260.367 35.6143C261.45 35.6105 261.839 36.0091 261.842 36.9502L261.853 40.0322L263.618 40.026L263.605 36.3558C263.6 35.0501 262.832 34.0176 261.22 34.0233C259.679 34.0287 258.977 34.9722 258.827 35.9609L258.722 35.9612L258.715 34.1497L257.08 34.1554L257.101 40.0489L258.865 40.0427ZM267.487 40.13C269.31 40.1236 270.402 39.3904 270.398 38.2847C270.394 37.3083 269.804 36.781 268.227 36.6101L266.968 36.4616C266.191 36.3703 266.026 36.2414 266.025 35.9356C266.024 35.5592 266.247 35.4055 267.129 35.4024C268.211 35.3986 268.447 35.6448 268.449 36.1271L268.449 36.1976L270.214 36.1914L270.214 36.1561C270.209 34.721 269.112 33.9955 267.183 34.0023C265.16 34.0094 264.28 34.836 264.284 35.8711C264.287 36.8592 264.948 37.3863 266.125 37.5115L267.784 37.7057C268.479 37.7974 268.655 37.8908 268.657 38.2202C268.658 38.5731 268.435 38.7268 267.494 38.7301C266.494 38.7336 266.164 38.5936 266.162 38.0643L266.162 37.9584L264.397 37.9646L264.397 37.9999C264.402 39.3645 265.499 40.137 267.487 40.13Z" fill="black"/>
<rect x="318" y="1.00052" width="1.30704" height="71.2338" transform="rotate(-0.0221138 318 1.00052)" fill="black"/>
<path d="M358.913 19.008L359.904 38.5668L378.807 33.4507L360.512 40.4371L371.219 56.8347L358.921 41.5937L346.635 56.8442L357.33 40.4383L339.029 33.466L357.937 38.5676L358.913 19.008Z" fill="black"/>
<rect x="399" y="2.00052" width="1.30704" height="71.2338" transform="rotate(-0.0221138 399 2.00052)" fill="black"/>
<path d="M435.287 32.1492C437.863 32.1482 439.157 30.8537 439.156 28.7363L439.154 24.1486L437.389 24.1493L437.391 28.6076C437.392 29.9486 436.898 30.4311 435.286 30.4317C433.686 30.4323 433.18 29.9502 433.18 28.6092L433.178 24.1509L431.414 24.1516L431.415 28.7393C431.416 30.8567 432.723 32.1502 435.287 32.1492ZM441.807 25.5356L441.807 24.1476L440.042 24.1482L440.043 25.5363L441.807 25.5356ZM441.81 32.029L441.808 26.1356L440.043 26.1363L440.045 32.0297L441.81 32.029ZM444.969 32.0278L444.967 27.593L446.79 27.5923L446.79 26.1337L444.896 26.1344C444.848 25.558 445.213 25.4285 445.989 25.4282L446.789 25.4278L446.789 24.1456L446.271 24.1458C444.46 24.1465 443.425 24.9468 443.237 26.135L442.367 26.1354L442.367 27.594L443.202 27.5937L443.204 32.0285L444.969 32.0278ZM449.139 32.0262L449.138 28.6148C449.137 27.8737 449.42 27.509 450.208 27.5087C450.925 27.5084 451.184 27.7906 451.184 28.4376L451.185 29.0493L452.949 29.0486L452.949 28.0722C452.948 26.9194 452.407 26.0139 451.089 26.0144C449.901 26.0148 449.278 26.7444 449.114 27.6973L449.008 27.6973L449.007 26.1328L447.372 26.1334L447.375 32.0269L449.139 32.0262ZM454.719 34.0238C456.202 34.0233 456.99 33.6818 457.554 32.4464L460.469 26.1284L458.504 26.1291L457.388 28.8116L456.918 30.2116L456.8 30.2117L456.305 28.8238L455.057 26.1305L453.058 26.1312L455.942 32.0471C455.824 32.3059 455.636 32.4237 455.201 32.4238L453.754 32.4244L453.755 34.0242L454.719 34.0238ZM464.475 32.0203L464.474 29.8441L466.827 29.8431C468.65 29.8424 469.826 28.7951 469.825 26.9835C469.825 25.1719 468.648 24.1372 466.825 24.1379L462.708 24.1395L462.711 32.021L464.475 32.0203ZM466.637 25.726C467.613 25.7257 468.072 26.0196 468.073 26.9842C468.073 27.9723 467.614 28.2548 466.638 28.2552L464.474 28.256L464.473 25.7269L466.637 25.726ZM472.218 32.0173L472.216 28.6059C472.216 27.8648 472.498 27.5 473.286 27.4997C474.004 27.4995 474.263 27.7817 474.263 28.4287L474.263 29.0404L476.028 29.0397L476.028 28.0633C476.027 26.9105 475.486 26.0049 474.168 26.0055C472.98 26.0059 472.357 26.7355 472.193 27.6884L472.087 27.6884L472.086 26.1239L470.451 26.1245L470.453 32.018L472.218 32.0173ZM479.797 32.132C481.668 32.1313 482.914 31.2368 482.914 29.9546L482.914 29.8252L481.149 29.8259L481.149 29.9435C481.149 30.4493 480.785 30.72 479.738 30.7204C478.597 30.7209 478.173 30.3328 478.126 29.4271L482.925 29.4252C482.949 29.2252 482.972 29.0723 482.972 28.8606C482.971 27.0137 481.689 26.0025 479.76 26.0033C477.819 26.004 476.49 27.1927 476.49 29.0748C476.491 31.1687 477.833 32.1328 479.797 32.132ZM479.725 27.3796C480.76 27.3792 481.231 27.7202 481.278 28.4965L478.149 28.4978C478.231 27.7331 478.678 27.38 479.725 27.3796ZM485.486 32.0122L485.485 29.036C485.484 28.0126 485.79 27.589 486.861 27.5886C487.872 27.5882 488.214 27.9528 488.214 28.9291L488.215 32.0111L489.98 32.0104L489.978 29.0343C489.978 28.0109 490.284 27.5873 491.354 27.5869C492.366 27.5865 492.707 27.951 492.708 28.9274L492.709 32.0094L494.473 32.0087L494.472 28.3385C494.471 26.9975 493.73 25.9979 492.212 25.9985C490.695 25.9991 490.095 26.9286 489.955 27.9286L489.849 27.9286C489.719 26.8347 489.024 25.9997 487.66 26.0002C486.178 26.0008 485.59 26.9186 485.449 27.9068L485.355 27.9068L485.354 26.1188L483.719 26.1194L483.722 32.0129L485.486 32.0122ZM497.132 25.5143L497.131 24.1262L495.367 24.1269L495.368 25.515L497.132 25.5143ZM497.135 32.0077L497.132 26.1142L495.368 26.1149L495.37 32.0084L497.135 32.0077ZM500.493 32.124C502.046 32.1234 502.763 31.1938 502.916 30.2056L503.01 30.2056L503.011 32.0054L504.657 32.0048L504.655 26.1113L502.891 26.112L502.892 29.0999C502.892 30.0998 502.481 30.547 501.328 30.5474C500.21 30.5478 499.81 30.148 499.81 29.1952L499.809 26.1132L498.044 26.1139L498.046 29.784C498.046 31.1015 498.835 32.1247 500.493 32.124ZM507.324 32.0037L507.323 29.0276C507.323 28.0042 507.628 27.5806 508.699 27.5802C509.71 27.5798 510.052 27.9443 510.052 28.9207L510.053 32.0027L511.818 32.002L511.817 29.0259C511.816 28.0025 512.122 27.5789 513.192 27.5784C514.204 27.5781 514.545 27.9426 514.546 28.919L514.547 32.001L516.311 32.0003L516.31 28.3301C516.309 26.9891 515.568 25.9895 514.05 25.9901C512.533 25.9906 511.933 26.9202 511.793 27.9201L511.687 27.9202C511.557 26.8262 510.863 25.9913 509.498 25.9918C508.016 25.9924 507.428 26.9102 507.287 27.8983L507.193 27.8984L507.192 26.1103L505.557 26.111L505.56 32.0044L507.324 32.0037Z" fill="black"/>
<path d="M432.665 50.6382L432.663 47.8254L436.951 47.8237L436.95 46.8199L432.663 46.8216L432.662 44.6467L437.106 44.645L437.106 43.6307L431.533 43.6328L431.535 50.6386L432.665 50.6382ZM439.077 50.6357L439.076 47.7184C439.076 46.7877 439.442 46.2962 440.33 46.2958C441.104 46.2955 441.418 46.6405 441.418 47.3829L441.418 47.8429L442.537 47.8425L442.537 47.1628C442.537 46.1799 442.024 45.3332 440.842 45.3336C439.776 45.334 439.211 46.0035 439.055 46.84L438.982 46.8401L438.981 45.4389L437.946 45.4393L437.948 50.6361L439.077 50.6357ZM445.862 50.7376C447.409 50.737 448.496 49.9733 448.496 48.8649L448.496 48.7708L447.367 48.7713L447.367 48.8549C447.367 49.4718 446.917 49.8275 445.83 49.8279C444.628 49.8284 444.136 49.2953 444.094 48.2915L448.506 48.2898C448.538 48.133 448.548 47.9866 448.548 47.7984C448.547 46.2194 447.449 45.3311 445.839 45.3317C444.145 45.3324 443.037 46.4202 443.037 48.041C443.038 49.7767 444.157 50.7383 445.862 50.7376ZM445.818 46.2205C446.927 46.2201 447.481 46.6799 447.481 47.6419L447.481 47.6628L444.104 47.6641C444.166 46.7335 444.668 46.2209 445.818 46.2205ZM452.009 50.7353C453.556 50.7347 454.644 49.9709 454.643 48.8625L454.643 48.7684L453.514 48.7689L453.514 48.8525C453.514 49.4695 453.065 49.8251 451.977 49.8256C450.775 49.826 450.283 49.2929 450.241 48.2892L454.653 48.2874C454.685 48.1306 454.695 47.9842 454.695 47.796C454.694 46.2171 453.596 45.3287 451.986 45.3293C450.292 45.33 449.184 46.4179 449.185 48.0386C449.185 49.7744 450.305 50.7359 452.009 50.7353ZM451.965 46.2181C453.074 46.2177 453.628 46.6776 453.628 47.6395L453.628 47.6605L450.251 47.6618C450.313 46.7311 450.815 46.2186 451.965 46.2181ZM460.811 50.6273L460.809 44.6358L463.559 44.6347L463.558 43.6205L456.929 43.623L456.929 44.6373L459.69 44.6362L459.692 50.6277L460.811 50.6273ZM465.351 50.6255L465.35 47.7082C465.349 46.7776 465.715 46.286 466.604 46.2857C467.378 46.2854 467.692 46.6303 467.692 47.3727L467.692 47.8328L468.811 47.8324L468.811 47.1527C468.81 46.1698 468.297 45.323 467.116 45.3235C466.049 45.3239 465.485 45.9933 465.328 46.8299L465.255 46.8299L465.255 45.4288L464.22 45.4292L464.222 50.626L465.351 50.6255ZM470.648 44.8202L470.648 43.6177L469.518 43.6182L469.519 44.8207L470.648 44.8202ZM470.65 50.6235L470.648 45.4267L469.519 45.4271L469.521 50.6239L470.65 50.6235ZM473.223 50.7271C474.404 50.7266 475.23 50.2035 475.502 49.325L475.575 49.325L475.575 50.6216L476.611 50.6212L476.609 47.4634C476.609 46.2191 475.866 45.3201 474.214 45.3208C472.562 45.3214 471.579 46.2106 471.58 47.3921L471.58 47.434L472.699 47.4335L472.699 47.3917C472.698 46.6284 473.169 46.3145 474.131 46.3141C475.124 46.3138 475.501 46.6168 475.501 47.4743L475.501 47.7775L473.138 48.0294C472.113 48.1448 471.465 48.5633 471.466 49.3684C471.466 50.2258 472.146 50.7275 473.223 50.7271ZM472.595 49.2948C472.595 48.887 472.877 48.7509 473.463 48.6775L475.501 48.4467C475.502 49.4714 474.707 49.9109 473.526 49.9114C472.877 49.9116 472.595 49.713 472.595 49.2948ZM478.748 50.6204L478.745 43.6146L477.616 43.6151L477.619 50.6208L478.748 50.6204Z" fill="black"/>
</svg>
